<svg xmlns="http://www.w3.org/2000/svg" width="43.96" height="44.256" viewBox="0 0 43.96 44.256">
  <g id="street-food_1_" data-name="street-food (1)" transform="translate(0.1 511.859)">
    <path id="Path_3" data-name="Path 3" d="M4.227-511.768c-.052.061-1.039,1.721-2.206,3.683L-.1-504.522l.026,3.009.026,3,.283.657a5.19,5.19,0,0,0,1.717,2.11l.524.346.009,5.421v5.43H-.091v7.868H2.484v9.078h38.8v-9.078H43.86v-7.868H41.285v-5.43l.009-5.421.524-.346a5.19,5.19,0,0,0,1.717-2.11l.283-.657.017-3.026.026-3.026L41.689-508.2l-2.172-3.631-17.606-.026C7.892-511.871,4.3-511.845,4.227-511.768Zm34.844,4.461c.6,1.012,1.1,1.859,1.1,1.885s-8.224.035-18.285.035S3.6-505.4,3.6-505.421c0-.035,1.82-3.113,2.112-3.58l.12-.19,16.07.017,16.07.026ZM6.776-501.124a8.743,8.743,0,0,1-.12,1.98,2.062,2.062,0,0,1-3.348,1.012c-.678-.605-.738-.821-.738-2.827v-1.747H6.776Zm6.867.121c0,1.539-.026,1.755-.18,2.1a2.027,2.027,0,0,1-1.064,1.089,2.077,2.077,0,0,1-2.73-.96c-.172-.32-.189-.493-.215-2.144l-.026-1.79h4.215Zm6.867.043c0,2.032-.052,2.213-.712,2.81a2.079,2.079,0,0,1-3.408-1.1,14.567,14.567,0,0,1-.086-1.885v-1.574h4.206Zm6.953-.173a14.568,14.568,0,0,1-.086,1.885,2.421,2.421,0,0,1-.97,1.331,2.032,2.032,0,0,1-2.438-.233c-.661-.6-.713-.778-.713-2.81v-1.747h4.206Zm6.85.216c-.026,1.651-.043,1.824-.215,2.144a2.087,2.087,0,0,1-3.794-.13c-.155-.346-.18-.562-.18-2.1v-1.7H34.34Zm6.885-.043c0,2.006-.06,2.222-.738,2.827a2.064,2.064,0,0,1-3.348-.994,8.885,8.885,0,0,1-.12-2v-1.582H41.2ZM9.343-495.444A4.874,4.874,0,0,0,14.579-496a2.644,2.644,0,0,1,.412-.311,2.129,2.129,0,0,1,.395.311,5.77,5.77,0,0,0,2.017.977,4.936,4.936,0,0,0,4.043-.951l.429-.346.438.346a4.832,4.832,0,0,0,5.983.026,4.021,4.021,0,0,1,.489-.363,3.452,3.452,0,0,1,.4.311,4.927,4.927,0,0,0,4.189.942,4.924,4.924,0,0,0,1.983-1.038l.283-.294.369.329a4.78,4.78,0,0,0,2,1.012l.609.138v10.358H36.469c-2.017,0-2.155-.009-2.095-.156.412-1.029.421-1.038.455-3.069l.034-1.963H23.172v1.833a6.523,6.523,0,0,0,.369,3.026l.137.329H20.09l.137-.329A6.523,6.523,0,0,0,20.6-487.9v-1.833H8.9l.034,1.963c.034,2.032.043,2.041.455,3.069.06.147-.077.156-2.095.156H5.145v-10.358l.609-.138a4.745,4.745,0,0,0,1.992-1.012l.361-.32.361.337A4.872,4.872,0,0,0,9.343-495.444Zm8.593,8.681a2.266,2.266,0,0,1-1.27,1.928c-.472.233-.524.242-1.906.242-1.614,0-1.794-.052-2.438-.648a2.449,2.449,0,0,1-.738-1.556v-.259h6.352Zm14.25-.035a2.449,2.449,0,0,1-.738,1.556c-.644.6-.824.648-2.438.648-1.382,0-1.434-.009-1.906-.242a2.266,2.266,0,0,1-1.27-1.928v-.294h6.352Zm9.014,6.182v1.254H2.57v-2.507H41.2Zm-2.575,7.133v3.2H5.145v-6.4H38.624Z" transform="translate(0 0)" fill="#fff"/>
  </g>
</svg>
